<svg width="36" height="36" viewBox="0 0 36 36" fill="none" xmlns="http://www.w3.org/2000/svg">
<path d="M21.5156 5.83594C21.1275 5.83594 20.8125 6.15094 20.8125 6.53906C20.8125 6.92719 21.1275 7.24219 21.5156 7.24219C21.9037 7.24219 22.2188 6.92719 22.2188 6.53906C22.2188 6.15094 21.9037 5.83594 21.5156 5.83594Z" fill="#00856F"/>
<path d="M14.4844 5.83594C14.0962 5.83594 13.7812 6.15094 13.7812 6.53906C13.7812 6.92719 14.0962 7.24219 14.4844 7.24219C14.8725 7.24219 15.1875 6.92719 15.1875 6.53906C15.1875 6.15094 14.8725 5.83594 14.4844 5.83594Z" fill="#00856F"/>
<path d="M33.2665 21.0151C33.87 20.1094 34.1719 18.9792 34.1719 18C34.1719 16.5237 33.5161 15.1521 32.3907 14.222C32.6398 13.6269 32.7656 13.008 32.7656 12.375C32.7656 10.4164 31.6226 8.59198 29.9232 7.74C30.1811 5.60152 28.7876 3.64134 26.7226 3.14135C25.9144 1.27294 24.1154 0 22.2188 0C20.4532 0 18.8697 1.0298 18 2.53237C17.1302 1.0298 15.5467 0 13.7812 0C11.8844 0 10.0855 1.27294 9.27738 3.14142C7.2 3.64458 5.81963 5.61452 6.07676 7.74C4.37745 8.59191 3.23438 10.4164 3.23438 12.375C3.23438 13.008 3.36023 13.6269 3.60928 14.222C2.48393 15.1522 1.82812 16.5237 1.82812 18C1.82812 18.9844 2.13258 20.113 2.73354 21.0151C2.14629 21.8441 1.82812 22.8265 1.82812 23.8359C1.82812 25.1449 2.35884 26.3918 3.29759 27.3177C2.81496 30.2351 5.1416 33.1875 8.15625 33.1875C8.17805 33.1875 8.19949 33.1871 8.22052 33.1865C9.22001 34.9107 11.0753 36 13.0781 36C15.1656 36 17.0308 34.747 18 32.9418C18.9692 34.747 20.8344 36 22.9219 36C24.9247 36 26.78 34.9107 27.7795 33.1865C27.8006 33.1871 27.822 33.1875 27.8438 33.1875C30.5117 33.1875 32.7656 30.837 32.7656 28.0547C32.7656 27.8178 32.7448 27.5742 32.7024 27.3177C33.6412 26.3918 34.1719 25.1449 34.1719 23.8359C34.1719 22.8265 33.8537 21.8441 33.2665 21.0151ZM17.2969 10.644C16.8829 10.4039 16.4027 10.2656 15.8906 10.2656C15.5023 10.2656 15.1875 10.5804 15.1875 10.9688C15.1875 11.3571 15.5023 11.6719 15.8906 11.6719C16.666 11.6719 17.2969 12.3027 17.2969 13.0781V26.4494C16.2653 25.2793 14.757 24.5391 13.0781 24.5391C12.6898 24.5391 12.375 24.8539 12.375 25.2422C12.375 25.6305 12.6898 25.9453 13.0781 25.9453C15.4043 25.9453 17.2969 27.8378 17.2969 30.1641C17.2969 32.5652 15.3649 34.5938 13.0781 34.5938C11.4502 34.5938 9.95168 33.6311 9.26023 32.1413C9.13275 31.8667 8.84405 31.7048 8.54304 31.7386C8.49333 31.7443 8.4439 31.7509 8.39447 31.7577C6.39337 32.0314 4.13986 29.7654 4.74989 27.2305C4.81254 26.9701 4.72184 26.6969 4.51603 26.5256C3.70153 25.8479 3.23438 24.8675 3.23438 23.8359C3.23438 23.1981 3.41473 22.574 3.75033 22.0267C4.59366 22.7178 5.64265 23.1328 6.75 23.1328C7.13834 23.1328 7.45312 22.818 7.45312 22.4297C7.45312 22.0414 7.13834 21.7266 6.75 21.7266C4.84179 21.7266 3.23438 19.9849 3.23438 18C3.23438 16.7959 3.84813 15.6882 4.87631 15.0369C5.19307 14.8362 5.29664 14.4223 5.11165 14.0961C4.79911 13.5449 4.64062 12.9658 4.64062 12.375C4.64062 10.4773 6.18764 8.64844 8.15625 8.64844C10.0291 8.64844 11.6719 10.3899 11.6719 12.375C11.6719 12.7633 11.9867 13.0781 12.375 13.0781C12.7633 13.0781 13.0781 12.7633 13.0781 12.375C13.0781 9.59273 10.8242 7.24219 8.15625 7.24219C7.92084 7.24219 7.6867 7.26124 7.45488 7.29731C7.45453 7.27882 7.45312 7.26082 7.45312 7.24219C7.45312 5.67302 8.72698 4.42969 10.2656 4.42969C11.0167 4.42969 11.7232 4.72226 12.2549 5.2534C12.5296 5.52783 12.9748 5.52755 13.2493 5.25291C13.5237 4.97813 13.5235 4.53298 13.2488 4.25855C12.6073 3.61779 11.796 3.20913 10.9167 3.07371C11.5368 2.15325 12.5679 1.40625 13.7812 1.40625C15.6541 1.40625 17.2969 3.14761 17.2969 5.13281V10.644ZM29.25 23.1328C30.3574 23.1328 31.4064 22.7178 32.2497 22.0269C32.5853 22.5741 32.7656 23.1982 32.7656 23.8359C32.7656 24.8675 32.2985 25.8479 31.484 26.5256C31.2782 26.6969 31.1875 26.9702 31.2502 27.2305C31.3247 27.5401 31.3594 27.802 31.3594 28.0546C31.3594 30.2371 29.3854 32.001 27.6056 31.7577C27.5562 31.7509 27.5067 31.7443 27.457 31.7386C27.1555 31.7045 26.8672 31.8667 26.7398 32.1413C26.0484 33.6311 24.5497 34.5938 22.9219 34.5938C20.6351 34.5938 18.7031 32.5652 18.7031 30.1641C18.7031 27.8378 20.5957 25.9453 22.9219 25.9453C23.3101 25.9453 23.625 25.6305 23.625 25.2422C23.625 24.8539 23.3101 24.5391 22.9219 24.5391C21.243 24.5391 19.7347 25.2793 18.7031 26.4494V13.0781C18.7031 12.3027 19.334 11.6719 20.1094 11.6719C20.4976 11.6719 20.8125 11.3571 20.8125 10.9688C20.8125 10.5804 20.4976 10.2656 20.1094 10.2656C19.5973 10.2656 19.1171 10.4039 18.7031 10.644V5.13281C18.7031 3.14761 20.3459 1.40625 22.2188 1.40625C23.4321 1.40625 24.4631 2.15325 25.0832 3.07364C24.204 3.20906 23.3928 3.61772 22.7512 4.25848C22.4764 4.53291 22.4762 4.97805 22.7506 5.25284C23.025 5.52762 23.4703 5.52783 23.745 5.2534C24.2769 4.72226 24.9833 4.42969 25.7344 4.42969C27.2808 4.42969 28.5469 5.68034 28.5469 7.24219C28.5469 7.26075 28.5455 7.27882 28.5451 7.29731C28.3133 7.26124 28.0792 7.24219 27.8438 7.24219C25.1758 7.24219 22.9219 9.59273 22.9219 12.375C22.9219 12.7633 23.2367 13.0781 23.625 13.0781C24.0133 13.0781 24.3281 12.7633 24.3281 12.375C24.3281 10.3899 25.9709 8.64844 27.8438 8.64844C29.8112 8.64844 31.3594 10.4764 31.3594 12.375C31.3594 12.9658 31.2009 13.5449 30.8884 14.0961C30.7034 14.4223 30.807 14.8362 31.1238 15.0369C32.1519 15.6882 32.7656 16.7959 32.7656 18C32.7656 19.992 31.1526 21.7266 29.25 21.7266C28.8617 21.7266 28.5469 22.0414 28.5469 22.4297C28.5469 22.818 28.8617 23.1328 29.25 23.1328Z" fill="#00856F"/>
<path d="M15.7115 15.0506C15.4526 14.7612 15.0082 14.7364 14.7187 14.9953C12.4639 17.0122 8.85937 15.4003 8.85937 12.375C8.85937 11.9867 8.54458 11.6719 8.15625 11.6719C7.76791 11.6719 7.45312 11.9867 7.45312 12.375C7.45312 14.8159 9.23955 16.8465 11.5734 17.2306C11.3027 18.0833 10.5037 18.7031 9.5625 18.7031C9.17416 18.7031 8.85937 19.0179 8.85937 19.4062C8.85937 19.7946 9.17416 20.1094 9.5625 20.1094C11.2751 20.1094 12.7048 18.8782 13.015 17.2545C13.9928 17.1266 14.9131 16.7082 15.6563 16.0434C15.9457 15.7845 15.9704 15.34 15.7115 15.0506Z" fill="#00856F"/>
<path d="M8.15625 27.3516C7.76791 27.3516 7.45312 27.6664 7.45312 28.0547C7.45312 28.443 7.76791 28.7578 8.15625 28.7578C10.0291 28.7578 11.6719 30.4992 11.6719 32.4844C11.6719 32.8727 11.9867 33.1875 12.375 33.1875C12.7633 33.1875 13.0781 32.8727 13.0781 32.4844C13.0781 29.7021 10.8242 27.3516 8.15625 27.3516Z" fill="#00856F"/>
<path d="M13.7812 21.7266C11.3986 21.7266 9.35293 23.0333 8.27574 24.9334C8.08428 25.2712 8.2029 25.7003 8.54068 25.8918C8.87853 26.0833 9.30758 25.9647 9.49911 25.6269C10.3383 24.1464 11.9306 23.1328 13.7812 23.1328C14.1696 23.1328 14.4843 22.818 14.4843 22.4297C14.4843 22.0414 14.1696 21.7266 13.7812 21.7266Z" fill="#00856F"/>
<path d="M26.4375 18.7031C25.4963 18.7031 24.6973 18.0833 24.4266 17.2306C26.7605 16.8465 28.5469 14.8159 28.5469 12.375C28.5469 11.9867 28.232 11.6719 27.8438 11.6719C27.4555 11.6719 27.1406 11.9867 27.1406 12.375C27.1406 14.3135 25.5635 15.8906 23.625 15.8906C22.759 15.8906 21.9268 15.5727 21.2813 14.9953C20.992 14.7364 20.5474 14.7611 20.2885 15.0506C20.0295 15.34 20.0543 15.7845 20.3437 16.0434C21.0869 16.7082 22.0073 17.1266 22.985 17.2545C23.2952 18.8782 24.7249 20.1094 26.4375 20.1094C26.8258 20.1094 27.1406 19.7946 27.1406 19.4062C27.1406 19.0179 26.8258 18.7031 26.4375 18.7031Z" fill="#00856F"/>
<path d="M27.8438 27.3516C25.1758 27.3516 22.9219 29.7021 22.9219 32.4844C22.9219 32.8727 23.2367 33.1875 23.625 33.1875C24.0133 33.1875 24.3281 32.8727 24.3281 32.4844C24.3281 30.4992 25.9709 28.7578 27.8438 28.7578C28.232 28.7578 28.5469 28.443 28.5469 28.0547C28.5469 27.6664 28.232 27.3516 27.8438 27.3516Z" fill="#00856F"/>
<path d="M27.7242 24.9334C26.6497 23.0379 24.6068 21.7266 22.2187 21.7266C21.8305 21.7266 21.5156 22.0414 21.5156 22.4297C21.5156 22.818 21.8305 23.1328 22.2187 23.1328C24.068 23.1328 25.6615 24.1461 26.5007 25.6269C26.6925 25.9651 27.1219 26.0831 27.4591 25.8919C27.797 25.7004 27.9156 25.2713 27.7242 24.9334Z" fill="#00856F"/>
</svg>
