<svg width="36" height="36" viewBox="0 0 36 36" fill="none" xmlns="http://www.w3.org/2000/svg">
<g clip-path="url(#clip0)">
<path d="M20.8237 7.3002C21.6667 6.5316 22.2001 5.4282 22.2001 4.2C22.2001 1.8846 20.3161 0 18 0C15.684 0 13.8 1.8846 13.8 4.2C13.8 5.4282 14.3334 6.5316 15.1764 7.3002C12.687 7.7802 10.8 9.9726 10.8 12.6V15C10.8 15.3318 11.0688 15.6 11.4 15.6H24.6001C24.9313 15.6 25.2001 15.3318 25.2001 15V12.6C25.2001 9.9726 23.3131 7.7802 20.8237 7.3002ZM15 4.2C15 2.5458 16.3458 1.2 18 1.2C19.6543 1.2 21.0001 2.5458 21.0001 4.2C21.0001 5.8542 19.6543 7.2 18 7.2C16.3458 7.2 15 5.8542 15 4.2ZM24.0001 14.4H12V12.6C12 10.2846 13.884 8.4 16.2 8.4H19.8C22.1161 8.4 24.0001 10.2846 24.0001 12.6V14.4Z" fill="#00856F"/>
<path d="M10.0236 27.7002C10.8666 26.9316 11.4 25.8282 11.4 24.6C11.4 22.2846 9.516 20.4 7.2 20.4C4.884 20.4 3 22.2846 3 24.6C3 25.8282 3.5334 26.9316 4.3764 27.7002C1.887 28.1802 0 30.3726 0 33V35.4C0 35.7318 0.2688 36 0.6 36H13.8C14.1312 36 14.4 35.7318 14.4 35.4V33C14.4 30.3726 12.513 28.1802 10.0236 27.7002ZM4.2 24.6C4.2 22.9458 5.5458 21.6 7.2 21.6C8.8542 21.6 10.2 22.9458 10.2 24.6C10.2 26.2542 8.8542 27.6 7.2 27.6C5.5458 27.6 4.2 26.2542 4.2 24.6ZM13.2 34.8H1.2V33C1.2 30.6846 3.084 28.8 5.4 28.8H9C11.316 28.8 13.2 30.6846 13.2 33V34.8Z" fill="#00856F"/>
<path d="M31.6237 27.7002C32.4667 26.9316 33.0001 25.8282 33.0001 24.6C33.0001 22.2846 31.1161 20.4 28.8001 20.4C26.4841 20.4 24.6001 22.2846 24.6001 24.6C24.6001 25.8282 25.1335 26.9316 25.9765 27.7002C23.4871 28.1802 21.6001 30.3726 21.6001 33V35.4C21.6001 35.7318 21.8689 36 22.2001 36H35.4001C35.7313 36 36.0001 35.7318 36.0001 35.4V33C36.0001 30.3726 34.1131 28.1802 31.6237 27.7002ZM25.8001 24.6C25.8001 22.9458 27.1459 21.6 28.8001 21.6C30.4543 21.6 31.8001 22.9458 31.8001 24.6C31.8001 26.2542 30.4543 27.6 28.8001 27.6C27.1459 27.6 25.8001 26.2542 25.8001 24.6ZM34.8001 34.8H22.8001V33C22.8001 30.6846 24.6841 28.8 27.0001 28.8H30.6001C32.9161 28.8 34.8001 30.6846 34.8001 33V34.8Z" fill="#00856F"/>
<path d="M3.6114 19.1808L2.4126 19.2276C2.4288 19.641 2.4618 20.0598 2.511 20.4714L3.7026 20.3286C3.657 19.9488 3.6264 19.5624 3.6114 19.1808Z" fill="#00856F"/>
<path d="M2.5104 16.7382C2.4618 17.1474 2.4282 17.5656 2.4126 17.9814L3.6114 18.0282C3.6264 17.6442 3.657 17.2584 3.702 16.8798L2.5104 16.7382Z" fill="#00856F"/>
<path d="M8.54335 6.1908C8.21515 6.441 7.89174 6.7086 7.58154 6.987L8.38375 7.8798C8.66935 7.623 8.96755 7.3758 9.27055 7.1454L8.54335 6.1908Z" fill="#00856F"/>
<path d="M3.88017 11.958C3.70377 12.333 3.54057 12.7194 3.39417 13.1088L4.51737 13.5306C4.65237 13.1718 4.80297 12.8154 4.96557 12.4704L3.88017 11.958Z" fill="#00856F"/>
<path d="M3.00186 14.2938C2.88786 14.6904 2.78886 15.099 2.70667 15.5058L3.88326 15.7428C3.95886 15.3678 4.05006 14.991 4.15566 14.6244L3.00186 14.2938Z" fill="#00856F"/>
<path d="M6.6882 7.85815C6.4008 8.16055 6.1248 8.47556 5.8656 8.79536L6.7986 9.55016C7.0374 9.25496 7.293 8.96336 7.5582 8.68436L6.6882 7.85815Z" fill="#00856F"/>
<path d="M10.6398 4.84253C10.2768 5.03633 9.91495 5.24933 9.56335 5.47553L10.2138 6.48473C10.5378 6.27533 10.8714 6.07913 11.205 5.90093L10.6398 4.84253Z" fill="#00856F"/>
<path d="M5.12039 9.79504C4.88579 10.1376 4.66259 10.4928 4.45679 10.8522L5.49779 11.4486C5.68739 11.1174 5.89379 10.7892 6.11039 10.4736L5.12039 9.79504Z" fill="#00856F"/>
<path d="M15.1572 32.7192L14.9202 33.8958C15.324 33.9774 15.7392 34.0428 16.1538 34.0914L16.293 32.8998C15.912 32.8548 15.5292 32.7942 15.1572 32.7192Z" fill="#00856F"/>
<path d="M20.8806 32.712C20.508 32.7876 20.1258 32.8494 19.743 32.8962L19.8876 34.0878C20.3016 34.0374 20.7156 33.9702 21.1188 33.8886L20.8806 32.712Z" fill="#00856F"/>
<path d="M18.5958 32.988C18.2124 33.003 17.8248 33.0048 17.4438 32.9898L17.3964 34.1886C17.5962 34.197 17.7978 34.2006 18.0018 34.2006C18.2166 34.1994 18.4308 34.1952 18.6438 34.1868L18.5958 32.988Z" fill="#00856F"/>
<path d="M28.4209 6.99182L27.6193 7.88462C27.9049 8.14142 28.1821 8.41142 28.4443 8.68742L29.3155 7.86242C29.0311 7.56242 28.7305 7.26962 28.4209 6.99182Z" fill="#00856F"/>
<path d="M30.1367 8.79895L29.2037 9.55375C29.4431 9.84955 29.6747 10.1609 29.8919 10.4777L30.8813 9.79915C30.6461 9.45655 30.3959 9.11995 30.1367 8.79895Z" fill="#00856F"/>
<path d="M33.5873 17.9832L32.3885 18.03C32.3963 18.219 32.4 18.4098 32.4 18.6C32.4 18.795 32.3963 18.9888 32.3885 19.1826L33.5873 19.2294C33.5957 19.0206 33.5999 18.8106 33.5999 18.5988C33.5999 18.393 33.5957 18.1872 33.5873 17.9832Z" fill="#00856F"/>
<path d="M31.5456 10.8552L30.504 11.4522C30.6942 11.784 30.873 12.1278 31.0362 12.4734L32.1216 11.961C31.9452 11.5866 31.7514 11.2146 31.5456 10.8552Z" fill="#00856F"/>
<path d="M32.6071 13.1112L31.4839 13.5336C31.6183 13.8912 31.7395 14.259 31.8451 14.6262L32.9989 14.2956C32.8849 13.8972 32.7529 13.4988 32.6071 13.1112Z" fill="#00856F"/>
<path d="M33.2928 15.5082L32.1168 15.7446C32.1924 16.1202 32.2536 16.503 32.298 16.8822L33.4896 16.7406C33.441 16.3302 33.375 15.9156 33.2928 15.5082Z" fill="#00856F"/>
<path d="M26.4401 5.47803L25.7903 6.48723C26.1107 6.69363 26.4275 6.91623 26.7329 7.14963L27.4613 6.19503C27.1307 5.94243 26.7875 5.70183 26.4401 5.47803Z" fill="#00856F"/>
<path d="M24.2424 4.29956L23.7618 5.39876C24.1116 5.55176 24.4596 5.72096 24.7974 5.90216L25.365 4.84496C24.9996 4.64816 24.6216 4.46456 24.2424 4.29956Z" fill="#00856F"/>
</g>
<defs>
<clipPath id="clip0">
<rect width="36" height="36" fill="white"/>
</clipPath>
</defs>
</svg>
