<svg width="34" height="34" viewBox="0 0 34 34" fill="none" xmlns="http://www.w3.org/2000/svg">
<path d="M13.4147 23.8267C13.2863 23.8267 13.1569 23.7825 13.0513 23.6926L9.41902 20.5997C9.29372 20.4929 9.22168 20.3369 9.22168 20.1721C9.22168 20.0077 9.29404 19.8517 9.41902 19.7449L13.0513 16.652C13.2872 16.4509 13.6415 16.4794 13.8426 16.7152C14.0433 16.9514 14.0152 17.3057 13.779 17.5065L10.6488 20.1721L13.779 22.8378C14.0152 23.0389 14.0433 23.3932 13.8426 23.629C13.7314 23.7596 13.5735 23.8267 13.4147 23.8267Z" fill="#00856F"/>
<path d="M20.5853 23.8267C20.4265 23.8267 20.2686 23.7596 20.1577 23.629C19.9566 23.3932 19.9851 23.0389 20.221 22.8378L23.3512 20.1721L20.221 17.5065C19.9851 17.3057 19.9566 16.9514 20.1577 16.7152C20.3585 16.4794 20.7131 16.4509 20.9486 16.652L24.5809 19.7449C24.7062 19.8517 24.7783 20.0077 24.7783 20.1721C24.7783 20.3369 24.7062 20.4929 24.5809 20.5997L20.9486 23.6926C20.8431 23.7825 20.7137 23.8267 20.5853 23.8267Z" fill="#00856F"/>
<path d="M15.7142 26.1465C15.6757 26.1465 15.6368 26.1424 15.5977 26.1343C15.2944 26.0704 15.1002 25.7725 15.1641 25.4693L17.4279 14.7212C17.4918 14.418 17.7894 14.2238 18.0929 14.2877C18.3961 14.3516 18.5903 14.6492 18.5264 14.9527L16.2627 25.7008C16.2069 25.9651 15.9739 26.1465 15.7142 26.1465Z" fill="#00856F"/>
<path d="M30.2311 32.0022H3.76887C1.69085 32.0022 0 30.3117 0 28.2333V5.77363C0 3.69561 1.69085 2.00476 3.76887 2.00476H30.2311C32.3091 2.00476 34 3.69561 34 5.77363V28.2333C34 30.3117 32.3091 32.0022 30.2311 32.0022ZM3.76887 3.1274C2.30981 3.1274 1.12264 4.31457 1.12264 5.77363V28.2333C1.12264 29.6924 2.30981 30.8796 3.76887 30.8796H30.2311C31.6902 30.8796 32.8774 29.6924 32.8774 28.2333V5.77363C32.8774 4.31457 31.6902 3.1274 30.2311 3.1274H3.76887Z" fill="#00856F"/>
<path d="M33.4387 10.993H0.561321C0.251216 10.993 0 10.7418 0 10.4317C0 10.1219 0.251216 9.87036 0.561321 9.87036H33.4387C33.7488 9.87036 34 10.1219 34 10.4317C34 10.7418 33.7488 10.993 33.4387 10.993Z" fill="#00856F"/>
<path d="M9.5907 8.30701C8.61152 8.30701 7.81433 7.50982 7.81433 6.53064C7.81433 5.55115 8.61152 4.75427 9.5907 4.75427C10.5702 4.75427 11.3671 5.55115 11.3671 6.53064C11.3671 7.50982 10.5702 8.30701 9.5907 8.30701ZM9.5907 5.87691C9.23048 5.87691 8.93697 6.1701 8.93697 6.53064C8.93697 6.89118 9.23048 7.18437 9.5907 7.18437C9.95123 7.18437 10.2444 6.89118 10.2444 6.53064C10.2444 6.1701 9.95123 5.87691 9.5907 5.87691Z" fill="#00856F"/>
<path d="M4.13281 8.28979C3.15332 8.28979 2.35645 7.49292 2.35645 6.51343C2.35645 5.53394 3.15332 4.73706 4.13281 4.73706C5.1123 4.73706 5.90918 5.53394 5.90918 6.51343C5.90918 7.49292 5.1123 8.28979 4.13281 8.28979ZM4.13281 5.8597C3.77259 5.8597 3.47909 6.15321 3.47909 6.51343C3.47909 6.87396 3.77259 7.16715 4.13281 7.16715C4.49335 7.16715 4.78654 6.87396 4.78654 6.51343C4.78654 6.15321 4.49335 5.8597 4.13281 5.8597Z" fill="#00856F"/>
<path d="M15.0485 8.32391C14.0693 8.32391 13.2725 7.52703 13.2725 6.54754C13.2725 5.56836 14.0693 4.77148 15.0485 4.77148C16.028 4.77148 16.8249 5.56836 16.8249 6.54754C16.8249 7.52703 16.028 8.32391 15.0485 8.32391ZM15.0485 5.89381C14.6883 5.89381 14.3951 6.187 14.3951 6.54754C14.3951 6.90807 14.6883 7.20126 15.0485 7.20126C15.4091 7.20126 15.7022 6.90807 15.7022 6.54754C15.7022 6.187 15.4091 5.89381 15.0485 5.89381Z" fill="#00856F"/>
</svg>
